<?xml version="1.0" standalone="no"?>
<!DOCTYPE svg PUBLIC "-//W3C//DTD SVG 20010904//EN"
 "http://www.w3.org/TR/2001/REC-SVG-20010904/DTD/svg10.dtd">
<svg version="1.0" xmlns="http://www.w3.org/2000/svg"
 width="500.000000pt" height="500.000000pt" viewBox="0 0 500.000000 500.000000"
 preserveAspectRatio="xMidYMid meet">
<metadata>
Created by potrace 1.14, written by Peter Selinger 2001-2017
</metadata>
<g transform="translate(0.000000,500.000000) scale(0.100000,-0.100000)"
fill="#000000" stroke="none">
<path d="M1527 3225 c-396 -237 -398 -239 -383 -298 4 -19 91 -75 385 -250
209 -125 389 -227 401 -227 27 0 70 43 70 69 0 39 -55 79 -347 251 -161 95
-293 176 -293 180 0 4 138 90 306 190 168 101 312 193 320 204 19 28 18 49 -7
80 -13 17 -30 26 -48 26 -18 0 -158 -78 -404 -225z"/>
<path d="M3026 3431 c-12 -13 -16 -32 -14 -58 l3 -38 317 -190 c175 -104 317
-192 317 -195 0 -3 -133 -84 -296 -180 -162 -96 -306 -183 -319 -193 -17 -13
-24 -29 -24 -51 0 -42 18 -64 55 -71 26 -5 82 26 410 222 l380 228 3 41 c2 29
-2 44 -15 56 -10 8 -181 113 -380 232 -375 224 -402 236 -437 197z"/>
<path d="M1070 1960 l0 -120 50 0 c93 0 140 42 140 123 0 42 -5 54 -34 83 -31
31 -39 34 -95 34 l-61 0 0 -120z m115 50 c26 -29 24 -79 -4 -102 -42 -33 -51
-25 -51 52 0 61 2 70 18 70 11 0 27 -9 37 -20z"/>
<path d="M1310 2074 c0 -3 18 -32 40 -64 35 -51 40 -66 40 -114 0 -56 0 -56
30 -56 30 0 30 0 30 58 0 44 6 66 23 92 13 19 32 47 42 63 l17 27 -33 0 c-28
0 -38 -7 -57 -36 l-24 -36 -24 36 c-19 28 -32 36 -54 36 -17 0 -30 -2 -30 -6z"/>
<path d="M1580 1960 l0 -120 70 0 c68 0 70 1 70 25 0 23 -4 25 -40 25 l-40 0
0 95 0 95 -30 0 -30 0 0 -120z"/>
<path d="M1846 2048 c-8 -18 -30 -72 -49 -120 l-35 -88 29 0 c22 0 32 6 39 25
8 22 16 25 55 25 39 0 47 -3 55 -25 7 -19 17 -25 39 -25 l29 0 -47 118 c-43
106 -50 117 -74 120 -23 3 -30 -2 -41 -30z m64 -100 c0 -5 -11 -8 -25 -8 -29
0 -29 0 -13 35 l12 26 13 -23 c7 -13 12 -26 13 -30z"/>
<path d="M2060 1960 l0 -120 25 0 c23 0 24 3 27 73 l3 72 48 -72 c42 -63 52
-73 77 -73 l30 0 0 120 0 120 -30 0 -29 0 -3 -72 -3 -71 -45 71 c-38 61 -49
72 -72 72 l-28 0 0 -120z"/>
<path d="M1560 1660 c0 -44 3 -51 18 -48 13 3 17 13 17 48 0 35 -4 45 -17 48
-15 3 -18 -4 -18 -48z m30 0 c0 -22 -4 -40 -10 -40 -5 0 -10 18 -10 40 0 22 5
40 10 40 6 0 10 -18 10 -40z"/>
<path d="M1680 1660 c0 -41 3 -50 18 -49 10 0 12 3 5 6 -7 2 -13 13 -13 23 0
10 6 21 13 23 10 4 10 6 0 6 -7 1 -13 7 -13 15 0 8 6 17 13 19 7 3 5 6 -5 6
-15 1 -18 -8 -18 -49z"/>
<path d="M1792 1680 c0 -19 2 -27 5 -17 2 9 2 25 0 35 -3 9 -5 1 -5 -18z"/>
<path d="M1822 1680 c0 -19 2 -27 5 -17 2 9 2 25 0 35 -3 9 -5 1 -5 -18z"/>
<path d="M1910 1660 c0 -41 3 -50 18 -49 10 0 12 3 5 6 -7 2 -13 13 -13 23 0
10 6 21 13 23 10 4 10 6 0 6 -7 1 -13 7 -13 15 0 8 6 17 13 19 7 3 5 6 -5 6
-15 1 -18 -8 -18 -49z"/>
<path d="M2022 1663 c-2 -49 0 -53 21 -52 16 1 17 3 5 6 -12 3 -18 18 -21 51
l-3 47 -2 -52z"/>
<path d="M2126 1686 c-9 -38 3 -78 23 -74 12 2 16 15 16 48 0 33 -4 46 -16 48
-11 2 -19 -6 -23 -22z m34 -20 c0 -19 -4 -38 -10 -41 -6 -4 -10 10 -10 34 0
23 5 41 10 41 6 0 10 -15 10 -34z"/>
<path d="M2241 1658 c1 -29 4 -43 6 -30 2 12 10 22 18 22 16 0 26 25 19 45 -4
8 -15 15 -25 15 -16 0 -19 -7 -18 -52z m34 22 c0 -7 -6 -15 -12 -17 -8 -3 -13
4 -13 17 0 13 5 20 13 18 6 -3 12 -11 12 -18z"/>
<path d="M2361 1658 c1 -29 4 -44 6 -33 3 11 12 24 20 30 19 14 13 49 -10 53
-14 3 -17 -4 -16 -50z m29 22 c0 -11 -4 -20 -10 -20 -5 0 -10 9 -10 20 0 11 5
20 10 20 6 0 10 -9 10 -20z"/>
<path d="M2470 1660 c0 -46 2 -50 23 -49 16 1 18 2 5 6 -21 5 -24 39 -5 46 10
4 10 6 0 6 -19 1 -15 29 5 34 13 4 11 5 -5 6 -21 1 -23 -3 -23 -49z"/>
<path d="M2581 1658 c2 -48 2 -50 8 -18 l7 35 9 -35 8 -35 10 35 11 35 6 -35
c7 -32 7 -30 9 18 1 58 -14 69 -27 20 l-9 -33 -7 33 c-12 50 -26 38 -25 -20z"/>
<path d="M2720 1660 c0 -46 2 -50 23 -49 16 1 18 2 5 6 -21 5 -24 39 -5 46 10
4 10 6 0 6 -19 1 -15 29 5 34 13 4 11 5 -5 6 -21 1 -23 -3 -23 -49z"/>
<path d="M2831 1658 l2 -53 7 40 c4 22 8 34 9 26 0 -8 4 -12 7 -8 8 8 -5 47
-17 47 -5 0 -8 -24 -8 -52z"/>
<path d="M2866 1668 c-4 -24 -3 -45 4 -52 7 -7 10 6 10 42 0 29 -2 52 -4 52
-2 0 -6 -19 -10 -42z"/>
<path d="M2957 1702 c6 -4 13 -28 16 -52 l4 -45 1 47 c1 26 7 49 15 51 6 3 -1
6 -18 6 -17 0 -25 -3 -18 -7z"/>
<path d="M3144 1697 c3 -10 6 -34 6 -53 0 -19 5 -34 10 -34 12 0 3 66 -12 90
-8 12 -8 11 -4 -3z"/>
<path d="M3170 1681 c0 -17 5 -33 10 -36 6 -4 10 8 10 29 0 20 -4 36 -10 36
-5 0 -10 -13 -10 -29z"/>
<path d="M3290 1660 c0 -46 2 -50 23 -49 16 1 18 2 5 6 -21 5 -24 39 -5 46 10
4 10 6 0 6 -19 1 -15 29 5 34 13 4 11 5 -5 6 -21 1 -23 -3 -23 -49z"/>
<path d="M3400 1660 c0 -34 4 -50 13 -50 24 0 33 19 29 60 -3 31 -8 40 -23 40
-16 0 -19 -8 -19 -50z m30 25 c0 -8 -4 -15 -10 -15 -5 0 -10 7 -10 15 0 8 5
15 10 15 6 0 10 -7 10 -15z m0 -45 c0 -11 -4 -20 -10 -20 -5 0 -10 9 -10 20 0
11 5 20 10 20 6 0 10 -9 10 -20z"/>
<path d="M3202 1680 c-1 -14 -5 -36 -8 -50 -5 -19 -4 -22 5 -14 7 7 11 28 8
50 -2 22 -4 28 -5 14z"/>
<path d="M1800 1625 c0 -8 5 -15 10 -15 6 0 10 7 10 15 0 8 -4 15 -10 15 -5 0
-10 -7 -10 -15z"/>
</g>
</svg>
