<?xml version="1.0" standalone="no"?>
<!DOCTYPE svg PUBLIC "-//W3C//DTD SVG 20010904//EN"
 "http://www.w3.org/TR/2001/REC-SVG-20010904/DTD/svg10.dtd">
<svg version="1.0" xmlns="http://www.w3.org/2000/svg"
 width="500.000000pt" height="500.000000pt" viewBox="0 0 500.000000 500.000000"
 preserveAspectRatio="xMidYMid meet">
<metadata>
Created by potrace 1.14, written by Peter Selinger 2001-2017
</metadata>
<g transform="translate(0.000000,500.000000) scale(0.100000,-0.100000)"
fill="#000000" stroke="none">
<path d="M2560 3645 c-128 -20 -226 -66 -329 -155 -198 -170 -280 -442 -207
-691 25 -85 69 -178 110 -228 11 -14 47 -51 78 -82 32 -31 58 -59 58 -62 0 -5
-108 -197 -117 -206 -2 -3 -16 3 -32 12 -25 15 -30 15 -41 2 -22 -26 -430
-737 -430 -749 0 -10 45 -40 145 -96 22 -12 49 -29 60 -36 31 -22 42 -17 70
34 15 26 39 67 53 92 14 25 42 74 64 109 21 34 38 65 38 66 0 2 56 101 125
219 69 119 125 220 125 226 0 5 -11 17 -26 26 -30 20 -30 19 41 140 l55 93 72
-25 c147 -50 341 -37 486 32 184 88 297 218 364 420 32 96 32 298 1 390 -75
217 -213 362 -428 445 -80 32 -221 41 -335 24z m289 -152 c151 -47 294 -196
342 -357 113 -380 -206 -746 -603 -691 -91 12 -214 73 -289 142 -143 132 -203
382 -135 569 68 191 214 316 419 357 71 15 182 6 266 -20z"/>
<path d="M2645 3453 c-88 -11 -192 -53 -257 -105 -52 -41 -123 -139 -147 -203
-20 -52 -33 -105 -27 -105 2 0 19 24 39 53 100 146 264 272 417 319 30 10 69
22 85 27 l30 9 -35 2 c-19 1 -44 3 -55 4 -11 1 -33 1 -50 -1z"/>
<path d="M743 3175 c-362 -218 -675 -410 -695 -428 -61 -54 -63 -133 -5 -187
25 -23 359 -231 472 -294 15 -9 468 -280 545 -327 83 -50 307 -182 330 -194
67 -34 142 -7 174 63 23 52 15 105 -22 142 -15 14 -280 178 -590 364 -310 186
-562 339 -560 341 2 1 190 114 418 250 228 136 431 257 450 270 19 12 84 51
144 86 60 35 121 77 137 93 80 82 20 216 -97 216 -38 0 -108 -39 -701 -395z"/>
<path d="M3479 3547 c-68 -46 -76 -141 -16 -197 18 -17 208 -135 422 -263 215
-128 438 -262 497 -297 59 -36 116 -70 125 -75 10 -6 37 -21 60 -34 33 -19 40
-27 32 -38 -6 -7 -14 -13 -18 -13 -4 0 -115 -65 -246 -144 -221 -133 -461
-277 -748 -448 -127 -76 -152 -100 -162 -157 -17 -104 91 -185 184 -136 35 17
1271 757 1319 788 39 25 72 83 72 125 0 67 -14 77 -723 504 -611 368 -683 408
-721 408 -28 0 -55 -8 -77 -23z"/>
<path d="M3353 1204 c-42 -18 -71 -55 -79 -100 -5 -36 -2 -45 24 -75 17 -19
53 -46 81 -59 28 -13 53 -32 57 -42 15 -47 -55 -64 -114 -28 -18 11 -35 20
-37 20 -6 0 -45 -62 -45 -72 0 -13 79 -48 120 -53 56 -7 118 11 152 45 22 23
28 37 28 73 0 58 -23 87 -104 127 -71 36 -83 51 -59 76 16 15 28 15 93 -1 20
-5 28 -1 43 23 9 17 17 33 17 36 0 11 -73 36 -111 39 -21 2 -51 -2 -66 -9z"/>
<path d="M3775 1210 c-100 -22 -138 -128 -70 -196 6 -7 34 -23 61 -37 65 -33
79 -49 64 -76 -14 -27 -58 -27 -110 -1 -22 11 -41 20 -42 20 -2 0 -12 -16 -22
-35 -23 -43 -14 -57 53 -80 86 -28 186 -3 216 55 37 71 5 134 -91 180 -69 32
-84 51 -63 76 10 12 23 14 53 10 22 -4 46 -12 52 -17 10 -8 18 0 34 30 l20 41
-35 14 c-45 19 -83 24 -120 16z"/>
<path d="M4176 1205 c-56 -19 -85 -42 -116 -92 -26 -40 -29 -53 -27 -117 3
-70 17 -105 62 -152 31 -32 91 -52 148 -48 74 4 125 33 162 92 26 40 30 56 30
118 -1 61 -5 77 -28 112 -49 75 -152 114 -231 87z m135 -117 c31 -40 34 -111
8 -159 -27 -51 -113 -59 -158 -14 -32 31 -40 108 -16 154 31 61 126 72 166 19z"/>
<path d="M110 1004 l0 -206 94 4 c86 3 98 6 138 33 102 71 119 223 34 308 -46
46 -84 59 -178 63 l-88 4 0 -206z m177 95 c41 -25 57 -104 31 -152 -14 -27
-47 -57 -65 -58 -51 -5 -48 -11 -50 106 -1 61 0 115 2 122 4 13 47 4 82 -18z"/>
<path d="M500 1202 c0 -3 32 -55 72 -114 l71 -109 0 -89 0 -90 46 0 47 0 -1
91 -1 90 72 107 c40 58 70 110 68 114 -3 5 -26 7 -52 6 -45 -3 -48 -5 -90 -66
l-44 -63 -42 63 -41 63 -52 2 c-29 0 -53 -2 -53 -5z"/>
<path d="M967 1202 c-2 -4 -3 -95 -3 -202 l1 -195 117 -3 117 -3 -2 38 -2 38
-67 3 -68 3 -1 52 c-1 29 -1 102 -1 162 l0 110 -44 2 c-24 1 -45 -1 -47 -5z"/>
<path d="M1420 1187 c-5 -12 -40 -101 -79 -197 -39 -95 -71 -178 -71 -182 0
-4 21 -8 46 -8 44 0 46 1 61 40 l16 40 77 0 c73 0 77 -1 88 -25 7 -14 12 -32
12 -40 0 -11 13 -15 54 -15 l55 0 -83 203 -82 202 -43 2 c-35 2 -43 -1 -51
-20z m77 -170 l19 -54 -43 0 c-24 -1 -43 1 -43 4 0 14 35 103 41 103 3 0 15
-24 26 -53z"/>
<path d="M1764 1198 c-7 -10 -11 -342 -5 -390 1 -5 21 -8 46 -8 l45 0 0 127 0
127 51 -79 c28 -44 64 -102 81 -128 30 -47 31 -48 77 -45 l46 3 1 190 c0 105
-1 195 -4 201 -2 7 -21 11 -45 10 l-42 -1 0 -118 c0 -64 -3 -117 -7 -117 -3 0
-40 53 -82 118 -74 115 -77 118 -115 120 -22 2 -42 -3 -47 -10z"/>
<path d="M2230 1005 l0 -205 98 0 c76 0 105 4 132 19 60 31 74 118 27 169 -11
12 -26 22 -34 22 -18 0 -16 7 7 32 34 37 25 111 -18 143 -21 15 -45 20 -119
22 l-93 2 0 -204z m160 90 c0 -27 -18 -45 -45 -45 -17 0 -21 6 -22 38 0 20 4
40 10 44 18 11 57 -14 57 -37z m17 -146 c14 -13 17 -37 5 -56 -4 -7 -26 -15
-49 -19 l-41 -6 2 48 c2 27 4 51 5 53 2 7 64 -9 78 -20z"/>
<path d="M2626 1202 c-2 -4 -4 -96 -5 -205 l0 -197 47 0 48 0 -1 71 c-1 38 1
72 4 74 4 2 31 -30 61 -71 l55 -74 65 0 c36 0 61 4 55 8 -5 4 -32 34 -59 67
-27 33 -56 67 -64 77 -12 14 -10 18 17 34 71 42 66 169 -8 205 -28 13 -208 23
-215 11z m162 -84 c17 -17 15 -63 -2 -77 -8 -7 -27 -11 -43 -9 -26 3 -28 6
-28 51 -1 46 0 47 30 47 17 0 36 -5 43 -12z"/>
<path d="M3040 1005 l0 -205 45 0 c52 0 46 -22 46 185 0 69 0 147 0 174 l-1
48 -45 1 -45 1 0 -204z"/>
<path d="M4545 1200 c-2 -3 -4 -95 -4 -203 l0 -197 47 0 48 0 -1 120 c0 66 2
120 5 120 3 0 39 -54 80 -120 l75 -120 48 0 47 0 0 205 0 205 -40 0 c-28 0
-42 -5 -48 -17 -4 -10 -7 -66 -7 -125 1 -60 1 -108 0 -108 -1 0 -28 42 -60 93
-97 155 -101 158 -146 155 -22 -1 -42 -5 -44 -8z"/>
<path d="M1030 635 c-10 -12 -10 -15 3 -15 19 0 31 16 18 24 -5 3 -14 -1 -21
-9z"/>
<path d="M779 593 c-1 -26 -1 -146 0 -160 2 -22 69 -16 81 6 12 24 13 131 1
150 -5 7 -25 15 -45 17 -29 4 -36 1 -37 -13z m59 -80 c2 -47 -1 -62 -13 -66
-13 -5 -15 5 -15 64 0 52 3 70 13 67 7 -3 13 -28 15 -65z"/>
<path d="M997 602 c-2 -4 -3 -45 -3 -92 l1 -85 42 -3 c35 -3 42 0 37 12 -3 9
-17 16 -30 16 -19 0 -23 5 -20 22 1 13 11 25 22 28 28 7 28 30 0 30 -19 0 -24
5 -22 25 1 20 6 25 27 25 15 0 26 6 26 14 0 14 -73 22 -80 8z"/>
<path d="M1197 603 c-4 -6 11 -104 22 -148 0 -3 1 -12 1 -20 0 -9 9 -15 24
-15 20 0 25 6 30 43 17 125 18 147 7 147 -11 0 -17 -19 -26 -89 -7 -62 -11
-61 -20 5 -4 31 -9 63 -12 71 -6 14 -19 17 -26 6z"/>
<path d="M1417 602 c-2 -4 -5 -47 -6 -95 l-2 -88 43 3 c47 3 59 21 17 26 -21
2 -26 9 -26 28 0 17 5 24 18 24 11 0 19 7 19 15 0 8 -9 15 -20 15 -15 0 -19 6
-18 25 2 20 8 25 30 25 19 0 26 4 22 14 -5 14 -71 20 -77 8z"/>
<path d="M1619 595 c0 -8 -1 -31 -1 -50 0 -19 1 -55 1 -80 l1 -45 40 0 c31 0
38 3 34 15 -4 8 -15 15 -25 15 -16 0 -19 8 -20 48 -1 26 0 62 1 80 1 23 -3 32
-14 32 -9 0 -16 -7 -17 -15z"/>
<path d="M1827 596 c-16 -17 -21 -131 -6 -158 15 -27 66 -24 75 5 12 33 7 136
-6 153 -16 18 -45 18 -63 0z m44 -28 c4 -49 -2 -113 -10 -121 -13 -13 -13 -16
-16 66 -3 53 0 67 11 67 8 0 14 -6 15 -12z"/>
<path d="M2028 538 c-4 -93 0 -118 18 -118 8 0 14 6 13 13 -5 38 2 57 21 57
23 0 38 25 35 62 -3 37 -18 53 -54 56 l-29 2 -4 -72z m57 12 c0 -13 -5 -25
-11 -27 -13 -4 -23 25 -16 45 7 21 27 7 27 -18z"/>
<path d="M2235 515 c0 -80 2 -95 15 -93 8 2 16 13 16 26 2 39 4 42 18 42 22 0
39 28 38 62 -1 38 -11 49 -53 54 l-34 5 0 -96z m55 35 c0 -27 -18 -44 -21 -20
-1 6 -2 16 -3 23 -3 16 3 27 15 27 5 0 9 -13 9 -30z"/>
<path d="M2447 604 c-4 -4 -7 -47 -7 -96 l0 -88 40 0 c30 0 40 4 40 16 0 10
-7 14 -22 12 -19 -2 -24 2 -26 25 -3 22 1 27 17 27 12 0 21 7 21 15 0 8 -9 15
-20 15 -15 0 -20 7 -20 25 0 20 5 25 26 25 36 0 25 24 -12 28 -16 2 -33 0 -37
-4z"/>
<path d="M2649 603 c-1 -4 -2 -47 -3 -95 -1 -66 2 -88 11 -88 9 0 13 16 14 48
l2 47 10 -47 c6 -28 16 -48 24 -48 7 0 13 1 13 3 1 1 3 20 6 42 8 56 14 57 14
2 0 -35 4 -47 15 -47 12 0 15 17 15 93 0 86 -2 93 -20 94 -11 1 -20 -1 -21 -5
0 -4 -2 -14 -4 -22 -6 -28 -14 -65 -15 -80 -1 -8 -7 12 -14 45 -8 43 -16 61
-28 63 -10 2 -18 0 -19 -5z"/>
<path d="M2899 595 c0 -8 -1 -31 -1 -50 0 -19 1 -55 1 -80 l1 -45 41 0 c43 0
52 22 11 28 -30 5 -31 52 -2 52 11 0 20 7 20 15 0 8 -8 15 -18 15 -25 0 -31 7
-25 31 3 12 14 19 29 19 13 0 24 6 24 13 0 20 -80 22 -81 2z"/>
<path d="M3107 603 c-3 -5 -5 -47 -5 -95 1 -67 4 -88 14 -88 10 0 14 17 15 63
l1 62 16 -63 c12 -47 20 -62 31 -60 13 3 16 19 16 92 0 62 -4 91 -13 94 -8 2
-12 -12 -13 -50 -1 -57 -2 -56 -19 10 -10 38 -31 55 -43 35z"/>
<path d="M3316 594 c-3 -9 1 -14 12 -14 15 0 17 -10 17 -77 0 -63 3 -78 15
-78 12 0 15 15 15 75 0 53 4 77 13 80 24 10 8 25 -30 27 -24 1 -38 -3 -42 -13z"/>
<path d="M3674 543 c3 -38 8 -77 10 -88 3 -11 5 -23 5 -27 1 -5 10 -8 21 -8
16 0 20 7 21 38 l2 37 10 -37 c7 -25 16 -38 28 -38 13 0 18 13 23 58 4 31 9
73 12 93 3 27 1 36 -11 36 -8 0 -15 -9 -16 -21 -2 -69 -18 -114 -20 -58 -3 68
-4 75 -16 79 -16 6 -22 -7 -24 -60 -3 -56 -15 -54 -17 3 -2 46 -8 60 -24 60
-7 0 -8 -22 -4 -67z"/>
<path d="M3930 513 l0 -93 40 0 c29 0 40 4 40 15 0 10 -10 15 -29 15 -25 0
-28 3 -23 25 3 16 11 25 23 25 11 0 19 7 19 15 0 8 -9 15 -19 15 -10 0 -21 6
-23 13 -9 22 3 37 28 37 14 0 24 6 24 14 0 11 -11 14 -40 13 l-40 -2 0 -92z"/>
<path d="M4136 593 c-3 -10 -5 -53 -4 -95 l1 -78 31 0 c41 0 56 11 56 41 0 13
0 47 0 76 0 42 -4 54 -19 63 -30 15 -59 12 -65 -7z m54 -39 c0 -31 -23 -28
-28 4 -2 15 2 22 12 22 11 0 16 -9 16 -26z m2 -60 c3 -3 4 -14 1 -25 -8 -28
-33 -24 -33 6 0 23 18 34 32 19z"/>
</g>
</svg>
